<?xml version="1.0" encoding="UTF-8"?>
<svg id="Layer_2" data-name="Layer 2" xmlns="http://www.w3.org/2000/svg" viewBox="0 0 918.9 394.96">
  <defs>
    <style>
      .cls-1 {
        fill: #0521af;
      }

      .cls-2 {
        fill: #cc1d1e;
      }

      .cls-3 {
        stroke-width: .36px;
      }

      .cls-3, .cls-4 {
        fill: #2b2422;
        stroke: #2b2422;
      }

      .cls-4 {
        stroke-width: .21px;
      }

      .cls-5 {
        fill: #f2dd00;
      }
    </style>
  </defs>
  <g id="Capa_1" data-name="Capa 1">
    <g>
      <g>
        <path class="cls-4" d="M66.68,355.13v-2.57h2.48v2.57h-2.48ZM69.16,358.96v25.63h-2.48v-25.63h2.48Z"/>
        <path class="cls-4" d="M141.68,369.22c0-2.12-.71-3.92-2.16-5.43-1.43-1.51-3.18-2.26-5.22-2.26s-3.77.75-5.21,2.26c-1.42,1.51-2.16,3.31-2.16,5.43v15.37h-2.47v-25.63h2.47v3.46c.14-.14.27-.29.41-.47,1.91-2,4.24-2.99,6.95-2.99s5.04,1,6.95,2.99c.68.71,1.22,1.46,1.67,2.24.4-.78.97-1.53,1.65-2.24,1.9-2,4.23-2.99,6.94-2.99s5.05,1,6.96,2.99c1.91,2.02,2.87,4.43,2.87,7.26v15.37h-2.47v-15.37c0-2.12-.7-3.92-2.16-5.43-1.43-1.51-3.17-2.26-5.21-2.26s-3.76.75-5.21,2.26c-1.44,1.51-2.17,3.31-2.17,5.43v15.37h-2.45v-15.37Z"/>
        <path class="cls-4" d="M219.16,365.37c.33-1.32.72-2.22,1.14-2.66,2.39-2.48,5.28-3.75,8.7-3.75s6.27,1.26,8.67,3.77c2.41,2.51,3.62,5.52,3.62,9.05s-1.2,6.56-3.62,9.07c-2.4,2.51-5.3,3.75-8.67,3.75s-6.3-1.24-8.7-3.77c-.41-.41-.81-1.29-1.14-2.63v16.66h-2.47v-35.89h2.47v6.41ZM228.99,382.04c2.69,0,5.04-1,6.94-2.99,1.92-2.01,2.88-4.42,2.88-7.27s-.96-5.25-2.88-7.24c-1.9-2-4.25-3.01-6.94-3.01s-5.06,1.02-6.96,3.01c-1.93,1.98-2.87,4.41-2.87,7.24s.94,5.27,2.87,7.27c1.9,2,4.22,2.99,6.96,2.99Z"/>
        <path class="cls-4" d="M308.89,384.59c-3.39,0-6.28-1.24-8.7-3.75-2.4-2.51-3.59-5.52-3.59-9.07s1.19-6.54,3.59-9.05c2.41-2.51,5.3-3.77,8.7-3.77s6.29,1.26,8.67,3.77c2.41,2.51,3.62,5.52,3.62,9.05s-1.21,6.56-3.62,9.07c-2.38,2.51-5.27,3.75-8.67,3.75ZM308.89,361.52c-2.73,0-5.05,1.02-6.94,3.01-1.93,1.98-2.89,4.41-2.89,7.24s.96,5.27,2.89,7.27c1.89,2,4.21,2.99,6.94,2.99s5.05-1,6.96-2.99c1.91-2.01,2.87-4.42,2.87-7.27s-.96-5.25-2.87-7.24c-1.91-2-4.25-3.01-6.96-3.01Z"/>
        <path class="cls-4" d="M388.48,361.83c-.66-.2-1.38-.31-2.13-.31-2.04,0-3.78.75-5.23,2.26-1.42,1.51-2.16,3.31-2.16,5.43v15.37h-2.47v-25.63h2.47v3.85c.15-.4.28-.68.41-.85,1.92-2,4.25-2.99,6.97-2.99.91,0,1.79.11,2.6.34l-.48,2.53Z"/>
        <path class="cls-4" d="M447.82,358.96v-10.25h2.47v10.25h3.67v2.56h-3.67v16.67c0,1.05.34,1.96,1.08,2.72.7.77,1.58,1.13,2.58,1.13v2.55c-1.69,0-3.14-.61-4.35-1.85-1.2-1.26-1.79-2.77-1.79-4.54v-16.67h-3.69v-2.56h3.69Z"/>
        <path class="cls-4" d="M531.41,378.2c-.34,1.34-.71,2.22-1.13,2.63-2.42,2.53-5.3,3.77-8.72,3.77s-6.27-1.24-8.67-3.75c-2.4-2.51-3.61-5.52-3.61-9.07s1.21-6.54,3.61-9.05c2.4-2.51,5.28-3.77,8.67-3.77s6.29,1.26,8.72,3.75c.41.44.79,1.34,1.13,2.66v-6.41h2.44v25.63h-2.44v-6.4ZM521.57,361.52c-2.7,0-5.03,1.02-6.95,3.01-1.92,1.98-2.88,4.41-2.88,7.24s.96,5.27,2.88,7.27c1.92,2,4.25,2.99,6.95,2.99s5.04-1,6.96-2.99c1.92-2.01,2.88-4.42,2.88-7.27s-.96-5.25-2.88-7.24c-1.92-2-4.24-3.01-6.96-3.01Z"/>
        <path class="cls-4" d="M611.33,378.2c-.35,1.34-.73,2.22-1.15,2.63-2.39,2.53-5.29,3.77-8.68,3.77s-6.3-1.24-8.7-3.75c-2.41-2.51-3.6-5.52-3.6-9.07s1.19-6.54,3.6-9.05c2.39-2.51,5.28-3.77,8.7-3.77s6.29,1.26,8.68,3.75c.41.44.8,1.34,1.15,2.66v-16.66h2.44v35.88h-2.44v-6.4ZM601.5,361.52c-2.73,0-5.04,1.02-6.95,3.01-1.92,1.98-2.88,4.41-2.88,7.24s.96,5.27,2.88,7.27c1.91,2,4.22,2.99,6.95,2.99s5.04-1,6.94-2.99c1.93-2.01,2.89-4.42,2.89-7.27s-.96-5.25-2.89-7.24c-1.9-2-4.23-3.01-6.94-3.01Z"/>
        <path class="cls-4" d="M681.42,384.59c-3.41,0-6.3-1.24-8.71-3.75-2.4-2.51-3.6-5.52-3.6-9.07s1.2-6.54,3.6-9.05c2.4-2.51,5.29-3.77,8.71-3.77s6.26,1.26,8.66,3.77c2.4,2.51,3.6,5.52,3.6,9.05s-1.2,6.56-3.6,9.07c-2.4,2.51-5.29,3.75-8.66,3.75ZM681.42,361.52c-2.74,0-5.05,1.02-6.97,3.01-1.92,1.98-2.88,4.41-2.88,7.24s.96,5.27,2.88,7.27c1.92,2,4.23,2.99,6.97,2.99s5.03-1,6.94-2.99c1.92-2.01,2.88-4.42,2.88-7.27s-.96-5.25-2.88-7.24c-1.91-2-4.24-3.01-6.94-3.01Z"/>
        <path class="cls-4" d="M760.99,361.83c-.66-.2-1.37-.31-2.14-.31-2.02,0-3.76.75-5.2,2.26-1.45,1.51-2.17,3.31-2.17,5.43v15.37h-2.47v-25.63h2.47v3.85c.13-.4.27-.68.43-.85,1.91-2,4.23-2.99,6.94-2.99.94,0,1.8.11,2.63.34l-.49,2.53Z"/>
        <path class="cls-4" d="M820.23,362.71c2.25-2.32,2.41-2.47.48-.47,2.28-2.18,5.06-3.28,8.22-3.28,3.39,0,6.3,1.26,8.71,3.75,2.4,2.51,3.59,5.54,3.59,9.07v1.29h-22.07c.28,2.28,1.19,4.28,2.83,5.99,1.89,2,4.23,2.99,6.93,2.99s5.05-1,6.98-2.99l1.73,1.82c-2.4,2.48-5.32,3.72-8.71,3.72s-6.28-1.24-8.7-3.72c-2.4-2.53-3.6-5.54-3.6-9.09,0-3.3,1.06-6.17,3.15-8.58-1.91,2.02-1.76,1.86.46-.49ZM838.69,370.51c-.24-2.3-1.18-4.28-2.8-5.98-1.92-2-4.23-3.01-6.97-3.01s-5.05,1.02-6.94,3.01c-1.64,1.7-2.55,3.68-2.83,5.98h19.54Z"/>
        <path class="cls-4" d="M909.42,373.61l-7.87-1.97c-1.73-.41-3.1-1.41-4.03-3.01-.95-1.57-1.21-3.28-.81-5.11.46-1.83,1.4-3.21,2.91-4.2,1.51-.96,3.67-1.3,6.54-.96,2.85.32,5.51,1.37,7.96,3.1l-1.18,2.12c-2.42-1.61-4.82-2.54-7.15-2.77-2.34-.24-4-.04-4.93.6-.95.63-1.56,1.54-1.8,2.69-.29,1.17-.12,2.25.48,3.25.61,1,1.45,1.62,2.54,1.92l7.85,1.95c1.76.42,3.13,1.43,4.06,3.01.95,1.6,1.2,3.3.79,5.11-.42,1.83-1.38,3.23-2.89,4.2-1.52.96-3.68,1.31-6.53.96-2.86-.32-5.53-1.34-7.97-3.09l1.17-2.11c2.42,1.62,4.82,2.54,7.16,2.77,2.34.23,4,.04,4.94-.6.94-.64,1.53-1.54,1.78-2.7.3-1.17.13-2.24-.49-3.23-.6-1-1.44-1.64-2.54-1.93Z"/>
      </g>
      <g>
        <path class="cls-3" d="M531.37.18c2.3,0,4.5.34,6.58,1.01l-1.94,2.14c-1.67-.37-3.21-.55-4.64-.55-2.81,0-5.47.61-7.97,1.8-2.52,1.21-4.8,2.89-6.81,5.07-1.8,1.97-3.2,4.19-4.2,6.69-1.02,2.53-1.62,5.21-1.84,8.05v2.7h16.83l-2.58,2.59h-14.24v49.27h-2.37c-.07-10.86-.08-19.72-.05-26.56.02-6.83.05-12.18.05-16.07v-10.14c0-3.59.62-6.97,1.84-10.11,1.22-3.16,2.88-5.92,4.95-8.27,2.09-2.37,4.54-4.22,7.35-5.59,2.81-1.35,5.82-2.03,9.06-2.03Z"/>
        <path class="cls-3" d="M535.14,52.06v.67c0,3.16.58,6.16,1.72,9.01,1.16,2.85,2.77,5.4,4.87,7.66,2.15,2.16,4.58,3.86,7.34,5.06,2.71,1.2,5.61,1.78,8.62,1.78s5.91-.59,8.64-1.78c2.73-1.2,5.18-2.89,7.35-5.06.85-.91,1.72-1.98,2.57-3.27h2.92c-2.16,3.83-5.13,6.89-8.91,9.22-3.77,2.32-7.97,3.48-12.57,3.48-3.44,0-6.7-.67-9.76-2.02-3.05-1.36-5.73-3.21-7.99-5.57-2.24-2.37-4.04-5.14-5.34-8.34-1.3-3.19-1.94-6.56-1.94-10.19v-.67c0-.45.01-.88.05-1.27.04-.43.08-.85.16-1.32.37-3.23,1.25-6.22,2.7-8.99,1.43-2.78,3.27-5.21,5.51-7.27,2.21-2.04,4.77-3.65,7.6-4.82,2.84-1.16,5.85-1.74,9-1.74s6.27.58,9.13,1.74c2.84,1.17,5.36,2.78,7.55,4.82,2.19,2.06,4,4.49,5.45,7.27,1.42,2.77,2.34,5.76,2.7,8.99.06.47.13.89.15,1.32.04.4.05.82.05,1.27h-47.58ZM541.73,36.07c-1.73,1.88-3.15,3.95-4.22,6.21-1.08,2.25-1.79,4.63-2.15,7.18h44.67c-.37-2.55-1.08-4.93-2.16-7.18-1.07-2.26-2.48-4.32-4.2-6.21-2.17-2.16-4.61-3.85-7.35-5.05-2.73-1.2-5.62-1.81-8.64-1.81s-5.91.61-8.62,1.81c-2.75,1.21-5.19,2.89-7.34,5.05Z"/>
        <path class="cls-3" d="M610.04,26.74c4.17,0,7.95,1.24,11.31,3.71l-1.83,1.8c-2.88-1.94-6.03-2.93-9.48-2.93-4.7,0-8.75,1.74-12.2,5.19-3.3,3.45-4.96,7.69-4.96,12.71v31.72h-2.37v-34.42c.08-.16.11-.34.11-.55.36-2.48,1.12-4.78,2.26-6.88,1.16-2.09,2.58-3.91,4.32-5.45,1.72-1.54,3.68-2.74,5.89-3.6,2.19-.86,4.5-1.3,6.96-1.3Z"/>
        <path class="cls-3" d="M650.49,26.74c4.16,0,7.94,1.24,11.34,3.71l-1.86,1.8c-2.86-1.94-6.05-2.93-9.48-2.93-4.68,0-8.75,1.74-12.19,5.19-3.32,3.45-4.96,7.69-4.96,12.71v31.72h-2.38v-34.42c.06-.16.12-.34.12-.55.36-2.48,1.1-4.78,2.26-6.88,1.15-2.09,2.59-3.91,4.33-5.45,1.71-1.54,3.68-2.74,5.87-3.6,2.2-.86,4.52-1.3,6.96-1.3Z"/>
        <path class="cls-3" d="M674.01,52.06v.67c0,3.16.57,6.16,1.73,9.01,1.14,2.85,2.77,5.4,4.85,7.66,2.17,2.16,4.6,3.86,7.33,5.06,2.74,1.2,5.62,1.78,8.64,1.78s5.91-.59,8.61-1.78c2.75-1.2,5.19-2.89,7.36-5.06.86-.91,1.71-1.98,2.59-3.27h2.9c-2.14,3.83-5.13,6.89-8.89,9.22-3.77,2.32-7.98,3.48-12.57,3.48-3.44,0-6.72-.67-9.78-2.02-3.05-1.36-5.71-3.21-7.96-5.57-2.29-2.37-4.05-5.14-5.35-8.34-1.31-3.19-1.95-6.56-1.95-10.19v-.67c0-.45.02-.88.05-1.27.03-.43.08-.85.16-1.32.36-3.23,1.26-6.22,2.7-8.99,1.45-2.78,3.26-5.21,5.51-7.27,2.23-2.04,4.75-3.65,7.61-4.82,2.83-1.16,5.85-1.74,9-1.74s6.27.58,9.13,1.74c2.83,1.17,5.34,2.78,7.53,4.82,2.2,2.06,4.01,4.49,5.45,7.27,1.44,2.77,2.34,5.76,2.7,8.99.06.47.12.89.17,1.32.02.4.05.82.05,1.27h-47.59ZM680.59,36.07c-1.72,1.88-3.13,3.95-4.2,6.21-1.1,2.25-1.81,4.63-2.17,7.18h44.68c-.36-2.55-1.07-4.93-2.16-7.18-1.08-2.26-2.5-4.32-4.21-6.21-2.17-2.16-4.6-3.85-7.36-5.05-2.7-1.2-5.59-1.81-8.61-1.81s-5.9.61-8.64,1.81c-2.73,1.21-5.17,2.89-7.33,5.05Z"/>
        <path class="cls-3" d="M760.98,29.67h-14.36v49.27h-2.36V29.67h-12.42l-2.49-2.59h14.9v-14.52l2.36-2.47v16.99h16.83l-2.47,2.59Z"/>
        <path class="cls-3" d="M772.84,52.06v.67c0,3.16.58,6.16,1.72,9.01,1.15,2.85,2.76,5.4,4.87,7.66,2.14,2.16,4.59,3.86,7.31,5.06,2.74,1.2,5.62,1.78,8.64,1.78s5.89-.59,8.64-1.78c2.73-1.2,5.17-2.89,7.34-5.06.86-.91,1.73-1.98,2.58-3.27h2.91c-2.17,3.83-5.12,6.89-8.9,9.22-3.8,2.32-7.97,3.48-12.58,3.48-3.46,0-6.7-.67-9.77-2.02-3.03-1.36-5.71-3.21-7.98-5.57-2.26-2.37-4.04-5.14-5.33-8.34-1.3-3.19-1.95-6.56-1.95-10.19v-.67c0-.45.02-.88.04-1.27.03-.43.11-.85.16-1.32.37-3.23,1.26-6.22,2.71-8.99,1.42-2.78,3.27-5.21,5.51-7.27,2.22-2.04,4.76-3.65,7.59-4.82,2.86-1.16,5.85-1.74,9.01-1.74s6.28.58,9.12,1.74c2.85,1.17,5.35,2.78,7.56,4.82,2.19,2.06,4.01,4.49,5.44,7.27,1.45,2.77,2.34,5.76,2.69,8.99.08.47.14.89.16,1.32.03.4.06.82.06,1.27h-47.58ZM779.43,36.07c-1.73,1.88-3.14,3.95-4.22,6.21-1.07,2.25-1.79,4.63-2.15,7.18h44.65c-.34-2.55-1.08-4.93-2.14-7.18-1.07-2.26-2.48-4.32-4.21-6.21-2.17-2.16-4.6-3.85-7.34-5.05-2.75-1.2-5.62-1.81-8.64-1.81s-5.9.61-8.64,1.81c-2.72,1.21-5.18,2.89-7.31,5.05Z"/>
        <path class="cls-3" d="M847.71,26.74c4.19,0,7.95,1.24,11.32,3.71l-1.82,1.8c-2.88-1.94-6.05-2.93-9.5-2.93-4.67,0-8.73,1.74-12.18,5.19-3.31,3.45-4.96,7.69-4.96,12.71v31.72h-2.37v-34.42c.06-.16.11-.34.11-.55.36-2.48,1.12-4.78,2.26-6.88,1.15-2.09,2.58-3.91,4.31-5.45,1.74-1.54,3.7-2.74,5.89-3.6,2.2-.86,4.51-1.3,6.95-1.3Z"/>
        <path class="cls-3" d="M893.69,26.74c3.46,0,6.69.7,9.71,2.1,3.02,1.4,5.68,3.26,7.94,5.62,2.26,2.35,4.05,5.11,5.39,8.26,1.34,3.15,2,6.53,2,10.14s-.66,6.97-2,10.18c-1.34,3.18-3.13,5.96-5.39,8.32-2.26,2.35-4.92,4.21-7.94,5.55-3.02,1.36-6.25,2.04-9.71,2.04s-6.71-.68-9.76-2.04c-3.07-1.34-5.72-3.2-7.98-5.55-2.26-2.36-4.06-5.14-5.34-8.32-1.3-3.2-1.95-6.6-1.95-10.18s.65-6.99,1.95-10.14c1.27-3.15,3.07-5.91,5.34-8.26,2.26-2.36,4.91-4.22,7.98-5.62,3.05-1.4,6.29-2.1,9.76-2.1ZM909.65,69.49c2.08-2.24,3.71-4.79,4.85-7.66,1.16-2.85,1.72-5.84,1.72-8.98s-.56-6.16-1.72-9.01c-1.14-2.84-2.76-5.39-4.85-7.65-2.17-2.17-4.6-3.87-7.34-5.08-2.73-1.17-5.6-1.8-8.63-1.8s-5.9.62-8.62,1.8c-2.73,1.21-5.21,2.9-7.33,5.08-2.08,2.26-3.72,4.81-4.86,7.65-1.16,2.85-1.73,5.85-1.73,9.01s.57,6.13,1.73,8.98c1.14,2.87,2.77,5.42,4.86,7.66,2.13,2.18,4.6,3.87,7.33,5.05,2.72,1.22,5.6,1.82,8.62,1.82s5.9-.6,8.63-1.82c2.73-1.19,5.17-2.87,7.34-5.05Z"/>
      </g>
      <g>
        <path class="cls-3" d="M201.54,43.29c0,.09.01.16.05.22.04.07.05.17.05.24v34.42h-2.38v-32.18c-.14-4.79-1.8-8.86-4.95-12.14-3.31-3.46-7.38-5.2-12.2-5.2-2.3,0-4.46.44-6.52,1.31-2.05.86-3.9,2.15-5.57,3.89-.71.73-1.35,1.61-1.94,2.58-.14.16-.19.26-.19.33v41.51h-2.5v-41.51l-.33-.33c-.57-.98-1.22-1.85-1.93-2.58-1.66-1.74-3.52-3.03-5.56-3.89-2.05-.86-4.23-1.31-6.52-1.31-4.84,0-8.9,1.74-12.2,5.2-3.31,3.42-4.97,7.68-4.97,12.71v31.71h-2.36v-34.53c0-.08.02-.18.05-.24.03-.07.04-.13.04-.22.37-2.45,1.13-4.74,2.26-6.85,1.16-2.11,2.6-3.91,4.33-5.45,1.72-1.55,3.69-2.74,5.88-3.6,2.19-.86,4.51-1.3,6.97-1.3,3.16,0,6.08.73,8.78,2.2,2.69,1.46,4.94,3.39,6.74,5.8,1.79-2.41,4.05-4.33,6.74-5.8,2.7-1.46,5.63-2.2,8.79-2.2,2.44,0,4.77.43,6.97,1.3,2.19.86,4.15,2.05,5.86,3.6,1.74,1.54,3.19,3.35,4.33,5.45,1.16,2.11,1.91,4.4,2.28,6.85Z"/>
        <path class="cls-3" d="M212.77,51.4v.67c0,3.16.56,6.16,1.72,8.99,1.16,2.87,2.76,5.42,4.85,7.67,2.16,2.17,4.59,3.85,7.35,5.06,2.72,1.21,5.6,1.81,8.62,1.81s5.9-.6,8.64-1.81c2.71-1.21,5.16-2.88,7.32-5.06.85-.9,1.74-1.98,2.59-3.26h2.92c-2.17,3.81-5.12,6.9-8.91,9.22-3.78,2.33-7.97,3.48-12.58,3.48-3.43,0-6.7-.68-9.77-2.03-3.04-1.35-5.72-3.19-7.98-5.59-2.25-2.33-4.04-5.11-5.34-8.31-1.29-3.18-1.94-6.56-1.94-10.18v-.67c0-.46.01-.89.03-1.3.05-.42.11-.83.18-1.3.36-3.24,1.25-6.23,2.7-9,1.43-2.77,3.26-5.2,5.51-7.26,2.21-2.04,4.76-3.67,7.6-4.82,2.83-1.17,5.85-1.75,9-1.75s6.27.58,9.12,1.75c2.84,1.15,5.37,2.78,7.56,4.82,2.18,2.06,4,4.49,5.44,7.26,1.43,2.77,2.34,5.76,2.71,9,.05.47.13.88.15,1.3.03.41.05.84.05,1.3h-47.57ZM219.34,35.42c-1.72,1.86-3.13,3.95-4.22,6.2-1.07,2.23-1.79,4.64-2.15,7.19h44.67c-.37-2.55-1.07-4.97-2.15-7.19-1.08-2.25-2.48-4.33-4.22-6.2-2.17-2.17-4.61-3.86-7.32-5.05-2.74-1.2-5.62-1.81-8.64-1.81s-5.9.61-8.62,1.81c-2.75,1.2-5.19,2.88-7.35,5.05Z"/>
        <path class="cls-3" d="M293.36,25.97c3.45,0,6.69.69,9.71,2.07,3.02,1.38,5.67,3.27,7.93,5.63,2.26,2.37,4.07,5.13,5.4,8.28,1.32,3.15,2.01,6.51,2.01,10.11v28.02c-.38,3.67-1.24,7.02-2.61,10.02-1.87,4.28-4.64,7.7-8.3,10.26-3.67,2.62-7.77,3.9-12.28,3.9-3.26,0-6.27-.69-9.08-2.02-2.81-1.35-5.26-3.21-7.35-5.58-2.07-2.36-3.73-5.14-4.95-8.32-1.21-3.19-1.84-6.61-1.84-10.19h2.28c0,6.45,2.04,12,6.13,16.65,2.03,2.18,4.3,3.87,6.79,5.08,2.52,1.2,5.19,1.81,8.01,1.81s5.45-.61,7.96-1.81c2.51-1.21,4.78-2.89,6.8-5.08,3.23-3.76,5.18-8.1,5.82-13.07v-18.2c-2.01,4.33-5.02,7.89-8.99,10.56-4,2.72-8.46,4.06-13.44,4.06-3.47,0-6.71-.68-9.77-2.03-3.06-1.35-5.72-3.19-7.97-5.59-2.28-2.33-4.05-5.11-5.35-8.31-1.3-3.18-1.96-6.56-1.96-10.18s.66-6.96,1.96-10.11c1.3-3.15,3.07-5.91,5.35-8.28,2.25-2.36,4.91-4.25,7.97-5.63,3.06-1.39,6.3-2.07,9.77-2.07ZM309.33,68.73c1.94-2.03,3.47-4.33,4.58-6.86,1.11-2.56,1.72-5.25,1.87-8.11.08-.37.12-.92.12-1.68v-.91c0-.29-.03-.58-.12-.89-.35-5.76-2.51-10.73-6.45-14.85-2.17-2.24-4.62-3.96-7.36-5.11-2.72-1.16-5.6-1.75-8.62-1.75s-5.9.59-8.63,1.75c-2.74,1.15-5.19,2.87-7.36,5.11-2.07,2.18-3.68,4.71-4.84,7.6-1.15,2.89-1.72,5.91-1.72,9.05s.57,6.16,1.72,8.99c1.16,2.87,2.76,5.42,4.84,7.67,2.17,2.17,4.61,3.85,7.36,5.06,2.73,1.21,5.6,1.81,8.63,1.81s5.9-.6,8.62-1.81c2.73-1.21,5.19-2.88,7.36-5.06Z"/>
        <path class="cls-3" d="M377.63,47.58c.06.35.12.75.15,1.16.04.43.06.82.06,1.2v28.23h-2.49v-14.62c-2.08,4.33-5.1,7.89-9.07,10.56-3.95,2.72-8.42,4.06-13.37,4.06-3.45,0-6.71-.68-9.77-2.03-3.05-1.35-5.71-3.19-7.99-5.59-2.25-2.33-4.04-5.11-5.34-8.31-1.28-3.18-1.94-6.56-1.94-10.18s.66-6.96,1.94-10.11c1.3-3.15,3.08-5.91,5.34-8.28,2.29-2.36,4.94-4.25,7.99-5.63,3.06-1.39,6.31-2.07,9.77-2.07,3.09,0,6.03.54,8.8,1.64,2.76,1.07,5.23,2.59,7.45,4.56,2.18,1.94,4.01,4.21,5.47,6.85,1.48,2.62,2.47,5.49,2.99,8.56ZM368.87,68.73c3.89-4.19,6.06-9.12,6.48-14.74.06-.29.12-.6.12-.9v-2.02c0-.32-.05-.65-.12-1.02-.43-5.7-2.59-10.57-6.48-14.63-2.16-2.17-4.59-3.86-7.34-5.05-2.71-1.2-5.6-1.81-8.62-1.81s-5.91.61-8.63,1.81c-2.74,1.2-5.18,2.88-7.35,5.05-2.07,2.26-3.71,4.81-4.85,7.65-1.15,2.85-1.72,5.86-1.72,9s.57,6.16,1.72,8.99c1.14,2.87,2.77,5.42,4.85,7.67,2.17,2.17,4.6,3.85,7.35,5.06,2.72,1.21,5.61,1.81,8.63,1.81s5.91-.6,8.62-1.81c2.74-1.21,5.18-2.88,7.34-5.06Z"/>
      </g>
      <path class="cls-1" d="M147.43,182.71h-44.23c-8.18,0-15.13,2.89-20.87,8.7-5.75,5.82-8.62,12.81-8.62,21.07s2.87,15.25,8.62,21.06c5.74,5.81,12.69,8.69,20.87,8.69h44.23v74.46h-44.23c-28.52,0-52.84-10.19-73-30.53C10.08,265.83,0,241.26,0,212.49s10.08-53.36,30.2-73.69c20.15-20.37,44.48-30.53,73-30.53h29.4l14.83,74.45Z"/>
      <path class="cls-1" d="M166.68,108.27h88.43v74.45h29.48v-74.45h88.47v208.43h-88.47v-74.46h-29.48v74.46l-88.43,19.45V108.27Z"/>
      <path class="cls-1" d="M828.87,316.7c-28.5,0-52.83-10.19-72.99-30.53-20.12-20.34-30.21-44.91-30.21-73.68s10.09-53.37,30.21-73.69c20.16-20.37,44.49-30.53,72.99-30.53h70.06l18.37,74.44h-88.43c-8.16,0-15.12,2.9-20.86,8.71-5.77,5.79-8.64,12.81-8.64,21.07s2.87,15.25,8.64,21.06c5.74,5.81,12.69,8.72,20.86,8.72v-44.68h88.43v119.11h-88.43Z"/>
      <path class="cls-2" d="M482.57,52.07c0,21.68-17.4,39.25-38.85,39.25s-38.87-17.57-38.87-39.25,17.4-39.24,38.87-39.24,38.85,17.56,38.85,39.24Z"/>
      <path class="cls-5" d="M487.92,108.27v208.43h-88.46V108.27h88.46Z"/>
      <path class="cls-1" d="M714.36,109.13v208.44h-77.39v-99.31l-12.87,54.64h-25.82l-12.89-54.18v98.86h-77.4V109.13h77.4l25.81,74.45,25.78-74.45h77.39Z"/>
    </g>
  </g>
</svg>